<svg data-v-0dd9719b="" version="1.0" xmlns="http://www.w3.org/2000/svg" xmlns:xlink="http://www.w3.org/1999/xlink" width="100%" height="100%" viewBox="0 0 340.000000 250.000000" preserveAspectRatio="xMidYMid meet" color-interpolation-filters="sRGB" style="margin: auto;"> <rect data-v-0dd9719b="" x="0" y="0" width="100%" height="100%" fill="#ffffff" fill-opacity="1" class="background"></rect> <rect data-v-0dd9719b="" x="0" y="0" width="100%" height="100%" fill="url(#watermark)" fill-opacity="1" class="watermarklayer"></rect> <g data-v-0dd9719b="" fill="#020f40" class="icon-text-wrapper icon-svg-group iconsvg" transform="translate(47.70500183105469,95)"><g class="iconsvg-imagesvg" transform="translate(0,0)"><g><rect fill="#020f40" fill-opacity="0" stroke-width="2" x="0" y="0" width="60" height="60" class="image-rect"></rect> <svg filter="url(#colors9076889707)" x="0" y="0" width="60" height="60" filtersec="colorsf6638266189" class="image-svg-svg primary" style="overflow: visible;"><svg xmlns="http://www.w3.org/2000/svg" viewBox="0.7999999999999998 0.7999999999999998 86.39999 86.39999"><path d="M7.6 80.5C7.6 60.3 23.9 44 44 44s36.4 16.3 36.4 36.4C60.3 80.5 44 64.1 44 44S60.3 7.6 80.5 7.6C80.5 27.7 64.1 44 44 44S7.6 27.7 7.6 7.6C27.7 7.6 44 23.9 44 44S27.7 80.5 7.6 80.5zm44.7-59.6c-.5-6.6-3.2-13-8.3-18.1-5 5-7.8 11.5-8.3 18M21 35.8C14.3 36.2 7.9 39 2.8 44c5 5 11.5 7.8 18 8.3m15 14.8c.5 6.6 3.2 13.1 8.2 18.1 5-5 7.8-11.5 8.3-18m14.8-14.9c6.6-.5 13.1-3.2 18.1-8.2-5-5-11.5-7.8-18-8.3" fill="none" stroke="#333" stroke-width="4" stroke-miterlimit="10"></path></svg></svg> <defs><filter id="colors9076889707"><feColorMatrix type="matrix" values="0 0 0 0 0.8984375  0 0 0 0 0.56640625  0 0 0 0 0.21875  0 0 0 1 0" class="icon-fecolormatrix"></feColorMatrix></filter> <filter id="colorsf6638266189"><feColorMatrix type="matrix" values="0 0 0 0 0.99609375  0 0 0 0 0.99609375  0 0 0 0 0.99609375  0 0 0 1 0" class="icon-fecolormatrix"></feColorMatrix></filter> <filter id="colorsb132561040"><feColorMatrix type="matrix" values="0 0 0 0 0  0 0 0 0 0  0 0 0 0 0  0 0 0 1 0" class="icon-fecolormatrix"></feColorMatrix></filter></defs></g></g> <g transform="translate(67,1.053750991821289)"><g data-gra="path-name" fill-rule="" class="tp-name iconsvg-namesvg" transform="translate(0,0)"><g transform="scale(1)"><g><path d="M27.07-30.63L34.06-30.63 37.18-34.94Q40.69-32.04 42.71-30.1L42.71-30.1Q42.54-29.4 41.4-29.4L41.4-29.4 11.6-29.4 11.6-19.16Q11.6-16.88 11.51-15.16 11.43-13.45 11.12-11.07 10.81-8.7 10.13-6.79 9.45-4.88 8.37-2.79 7.29-0.7 5.52 1.12 3.74 2.94 1.41 4.44L1.41 4.44 1.05 4.17Q2.42 1.71 3.3-1.14 4.17-4 4.53-7.29 4.88-10.59 4.99-13.03 5.1-15.47 5.1-19.12L5.1-19.12 5.1-33.18 12.57-30.63 20.57-30.63 20.57-38.5 28.74-37.88Q28.61-36.87 27.07-36.61L27.07-36.61 27.07-30.63ZM65.39-32.48L65.39-25.27 68.12-25.27 68.12-32.48 65.39-32.48ZM79.58-14.9L79.58-24.04 74.14-24.04 74.14-16.3Q74.14-15.56 74.58-15.56L74.58-15.56 75.41-15.56Q75.98-15.56 76.25-15.91L76.25-15.91Q76.82-16.61 77.92-19.82L77.92-19.82 78.35-19.82 78.53-15.73Q79.28-15.34 79.58-14.9L79.58-14.9ZM55.24-6.5L55.24-1.98 79.58-1.98 79.58-11.56Q78.49-9.8 74.14-9.8L74.14-9.8 72.33-9.8Q69.61-9.8 68.86-10.79 68.12-11.78 68.12-14.63L68.12-14.63 68.12-24.04 65.39-24.04Q65.39-22.02 65.21-20.39 65.04-18.76 64.42-16.66 63.81-14.55 62.78-12.88 61.74-11.21 59.83-9.47 57.92-7.73 55.28-6.46L55.28-6.46 55.24-6.5ZM59.33-24.04L59.33-24.04 55.24-24.04 55.24-7.25Q57.74-10.59 58.54-14.68 59.33-18.76 59.33-24.04ZM87.41-32.48L74.14-32.48 74.14-25.27 79.37-25.27 82.53-28.92 88.15-24.48Q87.63-23.73 86.26-23.47L86.26-23.47 86.26 2.2Q86.26 2.37 85.63 2.77 84.99 3.16 83.65 3.52 82.31 3.87 80.77 3.87L80.77 3.87 79.58 3.87 79.58-0.7 55.24-0.7 55.24 2.46Q55.24 2.68 54.67 3.03 54.1 3.38 52.84 3.71 51.59 4.04 50.1 4.04L50.1 4.04 48.91 4.04 48.91-27.82 55.81-25.27 59.33-25.27 59.33-32.48 46.89-32.48 46.54-33.75 78.62-33.75 82.22-38.19Q86.26-35.24 88.73-33.22L88.73-33.22Q88.51-32.48 87.41-32.48L87.41-32.48ZM128.06-32.21L128.06-32.21 96.37-32.21 96.02-33.49 119.09-33.49 122.7-38.14Q126.91-35.07 129.38-32.96L129.38-32.96Q129.16-32.21 128.06-32.21ZM91.58-21.45L123.05-21.45 126.78-26.28Q131.04-23.07 133.55-20.92L133.55-20.92Q133.37-20.21 132.23-20.21L132.23-20.21 114.92-20.21Q109.51-10.94 104.15-4.53L104.15-4.53Q110.52-4.83 122.04-5.71L122.04-5.71Q119.66-10.5 116.5-14.46L116.5-14.46 116.89-14.72Q126.91-11.43 130.56-5.41L130.56-5.41Q132.89-1.58 131.79 1.54L131.79 1.54Q131 3.87 128.89 4.13L128.89 4.13Q127.13 4.31 125.2 2.86L125.2 2.86Q124.54-0.31 122.78-4.09L122.78-4.09Q114.08-1.14 97.34 2.55L97.34 2.55Q96.77 3.38 95.89 3.6L95.89 3.6 92.59-4.09Q96.94-4.17 101.56-4.39L101.56-4.39Q104.33-12.66 105.69-20.21L105.69-20.21 91.93-20.21 91.58-21.45ZM170.07-31.11L173.19-34.23 178.64-29.14Q178.15-28.56 176.88-28.52L176.88-28.52Q174.16-26.46 170.51-24.74L170.51-24.74Q172.62-23.16 174.33-21.67L174.33-21.67Q174.11-20.92 173.06-20.92L173.06-20.92 160.75-20.92 160.75-12.13 165.85-12.13 168.88-16.04Q172.35-13.4 174.42-11.6L174.42-11.6Q174.24-10.9 173.14-10.9L173.14-10.9 160.75-10.9 160.75 0.7 169.58 0.7 172.75-3.38Q176.35-0.62 178.46 1.27L178.46 1.27Q178.29 1.98 177.23 1.98L177.23 1.98 137.24 1.98 136.89 0.7 154.07 0.7 154.07-10.9 141.94-10.9 141.59-12.13 154.07-12.13 154.07-20.92 141.86-20.92 141.46-22.19 165.54-22.19 168.66-26.15 169.28-25.71Q170.2-29.14 170.33-29.84L170.33-29.84 144.1-29.84Q144.36-27.51 143.68-25.77 143-24.04 141.72-23.2L141.72-23.2Q140.54-22.32 138.93-22.81 137.33-23.29 136.8-24.79L136.8-24.79Q136.41-26.19 137.02-27.29 137.64-28.39 138.96-29L138.96-29Q140.23-29.66 141.31-31.18 142.38-32.7 142.34-34.32L142.34-34.32 142.87-34.32Q143.61-32.43 143.92-31.11L143.92-31.11 154.03-31.11 154.03-38.5 162.42-37.88Q162.33-36.87 160.8-36.61L160.8-36.61 160.8-31.11 170.07-31.11ZM162.77-9.45L162.77-9.45 163.13-9.67Q169.32-8.88 170.73-5.89L170.73-5.89Q171.65-3.96 170.29-2.42L170.29-2.42Q168.88-0.83 166.77-1.49L166.77-1.49Q165.94-1.76 165.15-2.37L165.15-2.37Q165.1-6.2 162.77-9.45Z" transform="translate(-1.0499999523162842, 38.5)"></path></g> <!----> <!----> <!----> <!----> <!----> <!----> <!----></g></g> <g data-gra="path-slogan" fill-rule="" class="tp-slogan iconsvg-slogansvg" fill="#e69138" transform="translate(34.81444549560547,48.939998626708984)"><!----> <!----> <g transform="scale(1, 1)"><g transform="scale(1)"><path d="M7.31-3.61L4.69-3.61L4.69-4.59L8.44-4.59L8.44 0L7.69 0L7.41-1.08Q6.42 0.09 4.59 0.14L4.59 0.14Q2.86 0.14 1.92-0.75L1.92-0.75Q0.52-2.06 0.56-4.36L0.56-4.36Q0.89-8.63 4.64-8.81L4.64-8.81Q7.83-8.63 8.30-6L8.30-6L7.17-6Q6.70-7.78 4.59-7.83L4.59-7.83Q1.92-7.64 1.78-4.31L1.78-4.31Q1.78-0.75 4.64-0.75L4.64-0.75Q5.67-0.75 6.42-1.31L6.42-1.31Q7.36-2.06 7.31-3.61L7.31-3.61ZM15.89-3.19L15.89-8.58L17.06-8.58L17.06-3.05Q16.92 0.05 13.55 0.14L13.55 0.14Q10.41 0.05 10.27-2.86L10.27-2.86L10.27-8.58L11.44-8.58L11.44-3.19Q11.48-0.84 13.59-0.80L13.59-0.80Q15.89-0.84 15.89-3.19L15.89-3.19ZM24.52 0L23.67-2.48L20.20-2.48L19.31 0L18.14 0L21.38-8.58L22.69-8.58L25.78 0L24.52 0ZM21.94-7.31L20.58-3.52L23.25-3.52L21.98-7.31L21.94-7.31ZM28.22-8.58L32.53-1.64L32.53-8.58L33.66-8.58L33.66 0L32.34 0L27.98-6.94L27.94-6.94L27.94 0L26.81 0L26.81-8.58L28.22-8.58ZM41.86-3.61L39.23-3.61L39.23-4.59L42.98-4.59L42.98 0L42.23 0L41.95-1.08Q40.97 0.09 39.14 0.14L39.14 0.14Q37.41 0.14 36.47-0.75L36.47-0.75Q35.06-2.06 35.11-4.36L35.11-4.36Q35.44-8.63 39.19-8.81L39.19-8.81Q42.38-8.63 42.84-6L42.84-6L41.72-6Q41.25-7.78 39.14-7.83L39.14-7.83Q36.47-7.64 36.33-4.31L36.33-4.31Q36.33-0.75 39.19-0.75L39.19-0.75Q40.22-0.75 40.97-1.31L40.97-1.31Q41.91-2.06 41.86-3.61L41.86-3.61ZM51.52-8.58L48.61-4.41L51.66 0L50.20 0L47.86-3.52L45.52 0L44.11 0L47.20-4.41L44.30-8.58L45.75-8.58L47.91-5.30L50.11-8.58L51.52-8.58ZM52.92-8.58L54.09-8.58L54.09 0L52.92 0L52.92-8.58ZM66.33-8.58L63.09-3.47L63.09 0L61.92 0L61.92-3.47L58.69-8.58L60.05-8.58L62.48-4.45L64.97-8.58L66.33-8.58ZM73.03-3.19L73.03-8.58L74.20-8.58L74.20-3.05Q74.06 0.05 70.69 0.14L70.69 0.14Q67.55 0.05 67.41-2.86L67.41-2.86L67.41-8.58L68.58-8.58L68.58-3.19Q68.63-0.84 70.73-0.80L70.73-0.80Q73.03-0.84 73.03-3.19L73.03-3.19ZM77.39-8.58L81.70-1.64L81.70-8.58L82.83-8.58L82.83 0L81.52 0L77.16-6.94L77.11-6.94L77.11 0L75.98 0L75.98-8.58L77.39-8.58ZM87.84-7.64L85.78-7.64L85.78-4.97L87.84-4.97Q89.67-4.92 89.63-6.38L89.63-6.38Q89.63-7.64 87.84-7.64L87.84-7.64ZM88.31 0L84.61 0L84.61-8.58L88.41-8.58Q90.70-8.48 90.80-6.42L90.80-6.42Q90.80-5.16 89.67-4.64L89.67-4.64Q91.27-4.08 91.27-2.53L91.27-2.53Q91.13-0.09 88.31 0L88.31 0ZM88.03-3.98L85.78-3.98L85.78-0.98L88.27-0.98Q90.05-1.03 90.09-2.53L90.09-2.53Q90.09-3.98 88.03-3.98L88.03-3.98ZM98.25 0L97.41-2.48L93.94-2.48L93.05 0L91.88 0L95.11-8.58L96.42-8.58L99.52 0L98.25 0ZM95.67-7.31L94.31-3.52L96.98-3.52L95.72-7.31L95.67-7.31ZM107.34-4.27L107.34-4.27Q107.16-7.64 104.34-7.83L104.34-7.83Q101.48-7.69 101.34-4.27L101.34-4.27Q101.48-0.94 104.34-0.80L104.34-0.80Q107.16-0.98 107.34-4.27ZM108.52-4.27L108.52-4.27Q108.23 0 104.34 0.14L104.34 0.14Q100.41 0 100.13-4.27L100.13-4.27Q100.36-8.72 104.34-8.81L104.34-8.81Q108.23-8.67 108.52-4.27Z" transform="translate(-0.5609879032258065, 8.8125)"></path></g></g></g></g></g><defs v-gra="od"></defs></svg>